# Blender v2.92.0 OBJ File: 'PasilloFinal.blend'
# www.blender.org
mtllib Paredes.mtl
o Paredes_Plane.003
v 8.025000 3.000000 -1.620000
v 8.025000 3.000000 1.620000
v 8.025000 0.000000 -1.620000
v 8.025000 0.000000 1.620000
v -8.000000 3.000000 -1.782000
v 8.000000 3.000000 -1.782000
v -8.000000 0.000000 -1.782000
v 8.000000 0.000000 -1.782000
v -8.000000 3.000000 1.458000
v 8.000000 3.000000 1.458000
v -8.000000 0.000000 1.458000
v 8.000000 0.000000 1.458000
v -7.975000 3.000000 -1.620000
v -7.975000 3.000000 1.620000
v -7.975000 0.000000 -1.620000
v -7.975000 0.000000 1.620000
v 3.142076 0.000000 -1.782000
v 4.435999 3.000000 -1.782000
v 4.435999 0.000000 -1.782000
v 8.000000 1.959500 -1.782000
v 4.435999 1.959500 -1.782000
v 3.142099 3.000000 -1.781995
v 3.142099 1.959500 -1.782000
v -4.435516 0.000000 -1.782000
v -4.435509 3.000000 -1.782000
v -5.733083 0.000000 -1.781995
v -5.733077 3.000000 -1.782000
v -8.000000 1.958361 -1.782000
v 3.142091 1.958361 -1.782000
v -4.435512 1.958361 -1.782000
v -5.733079 1.958361 -1.782000
v 8.025000 3.000000 0.548955
v 8.025000 3.000000 -0.503446
v 8.025000 1.963115 -1.620000
v 8.025000 1.963115 1.620000
v 8.025000 1.963115 0.548955
v 8.025000 1.963115 -0.503446
v -0.659061 3.000000 1.458000
v -0.641384 0.000000 1.505452
v 0.634281 3.000000 1.458000
v 0.616603 0.000000 1.505452
v -8.000000 1.962135 1.458000
v 8.000000 1.962135 1.458000
v -0.651525 1.956482 1.473469
v 0.626743 1.956482 1.473469
v 8.025000 3.000000 0.673131
v 8.025000 0.000000 0.673131
v 8.025000 1.963115 0.673131
v 8.025000 0.000000 -0.631090
v 8.025000 3.000000 -0.631090
v 8.025000 1.963115 -0.631090
v -0.634062 0.000000 2.120000
v 0.609281 0.000000 2.120000
v -0.634062 1.962135 2.120000
v 0.609281 1.962135 2.120000
v -0.659061 1.943385 2.120000
v 0.634281 1.943385 2.120000
v 7.975000 3.000000 -1.620000
v 7.975000 3.000000 1.620000
v 7.975000 0.000000 -1.620000
v 7.975000 0.000000 1.620000
v -8.000000 3.000000 -1.458000
v 8.000000 3.000000 -1.458000
v -8.000000 0.000000 -1.458000
v 8.000000 0.000000 -1.458000
v -8.000000 3.000000 1.782000
v 8.000000 3.000000 1.782000
v -8.000000 0.000000 1.782000
v 8.000000 0.000000 1.782000
v -8.025000 3.000000 -1.620000
v -8.025000 3.000000 1.620000
v -8.025000 0.000000 -1.620000
v -8.025000 0.000000 1.620000
v 3.142076 0.000000 -1.458000
v 4.435999 3.000000 -1.458000
v 4.435999 0.000000 -1.458000
v 8.000000 1.959500 -1.458000
v 4.435999 1.959500 -1.458000
v 3.142099 3.000000 -1.458005
v 3.142099 1.959500 -1.458000
v -4.435516 0.000000 -1.458000
v -4.435509 3.000000 -1.458000
v -5.733083 0.000000 -1.458005
v -5.733077 3.000000 -1.458000
v -8.000000 1.958361 -1.458000
v 3.142091 1.958361 -1.458000
v -4.435512 1.958361 -1.458000
v -5.733079 1.958361 -1.458000
v 7.975000 3.000000 0.548955
v 7.975000 3.000000 -0.503446
v 7.975000 1.963115 -1.620000
v 7.975000 1.963115 1.620000
v 7.975000 1.963115 0.548955
v 7.975000 1.963115 -0.503446
v -0.659061 3.000000 1.782000
v -0.676739 0.000000 1.734547
v 0.634281 3.000000 1.782000
v 0.651958 0.000000 1.734547
v -8.000000 1.962135 1.782000
v 8.000000 1.962135 1.782000
v -0.666598 1.967788 1.766530
v 0.641818 1.967788 1.766530
v 7.975000 3.000000 0.673131
v 7.975000 0.000000 0.673131
v 7.975000 1.963115 0.673131
v 7.975000 0.000000 -0.631090
v 7.975000 3.000000 -0.631090
v 7.975000 1.963115 -0.631090
v -0.684061 0.000000 2.120000
v 0.659281 0.000000 2.120000
v -0.684061 1.962135 2.120000
v 0.659281 1.962135 2.120000
v -0.659061 1.980885 2.120000
v 0.634281 1.980885 2.120000
vt 0.714009 0.345628
vt 1.000000 0.345628
vt 1.000000 1.000000
vt 0.714009 1.000000
vt 0.540962 0.345359
vt 1.000000 0.345359
vt 1.000000 1.000000
vt 0.540962 1.000000
vt 0.000000 0.000000
vt 1.000000 0.000000
vt 1.000000 1.000000
vt 0.000000 1.000000
vt 0.783887 0.355280
vt 1.000000 0.355280
vt 1.000000 1.000000
vt 0.783887 1.000000
vt 0.224032 0.347480
vt 0.694736 0.347480
vt 0.694736 1.000000
vt 0.224032 1.000000
vt 0.783887 0.000000
vt 1.000000 0.000000
vt 0.783887 0.355280
vt 0.783887 0.000000
vt 0.000000 0.347480
vt 0.140385 0.347480
vt 0.140385 1.000000
vt 0.000000 1.000000
vt 0.000000 0.000000
vt 0.140385 0.000000
vt 0.224032 0.000000
vt 0.694736 0.000000
vt 0.000000 0.345359
vt 0.458948 0.345359
vt 0.458948 1.000000
vt 0.000000 1.000000
vt 0.306606 0.000000
vt 0.347944 0.000000
vt 0.347944 0.345628
vt 0.306606 0.345628
vt 0.672355 0.000000
vt 0.672355 0.345628
vt 0.714009 0.000000
vt 1.000000 0.000000
vt 0.458948 0.000000
vt 0.540962 0.000000
vt 0.000000 0.000000
vt 1.000000 0.000000
vt 0.000000 0.000000
vt 0.000000 0.345628
vt 0.306606 1.000000
vt 0.000000 1.000000
vt 0.540962 1.000000
vt 0.540962 0.345359
vt 0.458948 0.345359
vt 0.458948 1.000000
vt 0.540962 0.345359
vt 0.458948 0.345359
vt 0.714009 0.345628
vt 0.714009 1.000000
vt 1.000000 1.000000
vt 1.000000 0.345628
vt 0.540962 0.345359
vt 0.540962 1.000000
vt 1.000000 1.000000
vt 1.000000 0.345359
vt 0.000000 0.000000
vt 0.000000 1.000000
vt 1.000000 1.000000
vt 1.000000 0.000000
vt 0.783887 0.355280
vt 0.783887 1.000000
vt 1.000000 1.000000
vt 1.000000 0.355280
vt 0.224032 0.347480
vt 0.224032 1.000000
vt 0.694736 1.000000
vt 0.694736 0.347480
vt 0.783887 0.000000
vt 1.000000 0.000000
vt 0.783887 0.000000
vt 0.783887 0.355280
vt 0.000000 0.347480
vt 0.000000 1.000000
vt 0.140385 1.000000
vt 0.140385 0.347480
vt 0.000000 0.000000
vt 0.140385 0.000000
vt 0.224032 0.000000
vt 0.694736 0.000000
vt 0.000000 0.345359
vt 0.000000 1.000000
vt 0.458948 1.000000
vt 0.458948 0.345359
vt 0.306606 0.000000
vt 0.306606 0.345628
vt 0.347944 0.345628
vt 0.347944 0.000000
vt 0.672355 0.345628
vt 0.672355 0.000000
vt 0.714009 0.000000
vt 1.000000 0.000000
vt 0.458948 0.000000
vt 0.540962 0.000000
vt 0.000000 0.000000
vt 1.000000 0.000000
vt 0.000000 0.000000
vt 0.000000 0.345628
vt 0.000000 1.000000
vt 0.306606 1.000000
vt 0.540962 0.345359
vt 0.540962 1.000000
vt 0.458948 1.000000
vt 0.458948 0.345359
vt 0.458948 0.345359
vt 0.540962 0.345359
vn 1.0000 0.0000 0.0000
vn -0.0043 -0.0082 -1.0000
vn -0.0000 0.0000 -1.0000
vn 0.0043 -0.0082 -1.0000
vn 0.0000 -0.0148 -0.9999
vn 0.0011 -0.0074 -1.0000
vn -0.0010 -0.0074 -1.0000
vn -0.9998 0.0024 -0.0197
vn 0.9998 0.0024 -0.0197
vn 0.0000 -0.9998 -0.0203
vn -1.0000 0.0000 0.0000
vn -0.0043 -0.0081 1.0000
vn 0.0000 0.0000 1.0000
vn 0.0043 -0.0081 1.0000
vn 0.0000 -0.0150 0.9999
vn 0.0011 -0.0075 1.0000
vn -0.0011 -0.0075 1.0000
vn 0.9994 0.0029 -0.0335
vn -0.9994 0.0029 -0.0335
vn 0.0000 0.9993 -0.0370
vn 0.0000 1.0000 0.0000
vn 0.0000 -1.0000 0.0000
vn -0.1712 0.9852 -0.0000
vn 0.1712 0.9852 -0.0000
vn -0.9555 -0.2951 -0.0000
vn 0.9555 -0.2951 0.0000
usemtl None
s off
f 48/1/1 35/2/1 4/3/1 47/4/1
f 45/5/2 43/6/2 12/7/2 41/8/2
f 13/9/1 14/10/1 16/11/1 15/12/1
f 21/13/3 20/14/3 8/15/3 19/16/3
f 30/17/3 29/18/3 17/19/3 24/20/3
f 18/21/3 6/22/3 20/14/3 21/13/3
f 18/21/3 21/13/3 23/23/3 22/24/3
f 28/25/3 31/26/3 26/27/3 7/28/3
f 5/29/3 27/30/3 31/26/3 28/25/3
f 27/30/3 25/31/3 30/17/3 31/26/3
f 25/31/3 22/32/3 29/18/3 30/17/3
f 42/33/4 44/34/4 39/35/4 11/36/4
f 50/37/1 33/38/1 37/39/1 51/40/1
f 33/38/1 32/41/1 36/42/1 37/39/1
f 46/43/1 2/44/1 35/2/1 48/1/1
f 38/45/5 40/46/5 45/5/5 44/34/5
f 9/47/6 38/45/6 44/34/6 42/33/6
f 40/46/7 10/48/7 43/6/7 45/5/7
f 32/41/1 46/43/1 48/1/1 36/42/1
f 1/49/1 50/37/1 51/40/1 34/50/1
f 34/50/1 51/40/1 49/51/1 3/52/1
f 45/5/8 41/8/8 53/53/8 55/54/8
f 39/35/9 44/34/9 54/55/9 52/56/9
f 44/34/10 45/5/10 57/57/10 56/58/10
f 105/59/11 104/60/11 61/61/11 92/62/11
f 102/63/12 98/64/12 69/65/12 100/66/12
f 70/67/11 72/68/11 73/69/11 71/70/11
f 78/71/13 76/72/13 65/73/13 77/74/13
f 87/75/13 81/76/13 74/77/13 86/78/13
f 75/79/13 78/71/13 77/74/13 63/80/13
f 75/79/13 79/81/13 80/82/13 78/71/13
f 85/83/13 64/84/13 83/85/13 88/86/13
f 62/87/13 85/83/13 88/86/13 84/88/13
f 84/88/13 88/86/13 87/75/13 82/89/13
f 82/89/13 87/75/13 86/78/13 79/90/13
f 99/91/14 68/92/14 96/93/14 101/94/14
f 107/95/11 108/96/11 94/97/11 90/98/11
f 90/98/11 94/97/11 93/99/11 89/100/11
f 103/101/11 105/59/11 92/62/11 59/102/11
f 95/103/15 101/94/15 102/63/15 97/104/15
f 66/105/16 99/91/16 101/94/16 95/103/16
f 97/104/17 102/63/17 100/66/17 67/106/17
f 89/100/11 93/99/11 105/59/11 103/101/11
f 58/107/11 91/108/11 108/96/11 107/95/11
f 91/108/11 60/109/11 106/110/11 108/96/11
f 102/63/18 112/111/18 110/112/18 98/64/18
f 96/93/19 109/113/19 111/114/19 101/94/19
f 101/94/20 113/115/20 114/116/20 102/63/20
f 1/49/3 34/50/3 91/108/3 58/107/3
f 2/44/21 46/43/21 103/101/21 59/102/21
f 4/3/13 35/2/13 92/62/13 61/61/13
f 3/52/22 49/51/22 106/110/22 60/109/22
f 5/29/11 28/25/11 85/83/11 62/87/11
f 8/15/1 20/14/1 77/74/1 65/73/1
f 9/47/11 42/33/11 99/91/11 66/105/11
f 10/48/21 40/46/21 97/104/21 67/106/21
f 12/7/1 43/6/1 100/66/1 69/65/1
f 11/36/22 39/35/22 96/93/22 68/92/22
f 13/9/3 15/12/3 72/68/3 70/67/3
f 14/10/21 13/9/21 70/67/21 71/70/21
f 16/11/13 14/10/13 71/70/13 73/69/13
f 15/12/22 16/11/22 73/69/22 72/68/22
f 6/22/21 18/21/21 75/79/21 63/80/21
f 7/28/22 26/27/22 83/85/22 64/84/22
f 19/16/22 8/15/22 65/73/22 76/72/22
f 21/13/11 19/16/11 76/72/11 78/71/11
f 20/14/1 6/22/1 63/80/1 77/74/1
f 22/24/11 23/23/11 80/82/11 79/81/11
f 18/21/21 22/24/21 79/81/21 75/79/21
f 23/23/22 21/13/22 78/71/22 80/82/22
f 22/32/21 25/31/21 82/89/21 79/90/21
f 17/19/1 29/18/1 86/78/1 74/77/1
f 24/20/22 17/19/22 74/77/22 81/76/22
f 25/31/21 27/30/21 84/88/21 82/89/21
f 30/17/11 24/20/11 81/76/11 87/75/11
f 27/30/21 5/29/21 62/87/21 84/88/21
f 26/27/1 31/26/1 88/86/1 83/85/1
f 28/25/11 7/28/11 64/84/11 85/83/11
f 29/18/1 22/32/1 79/90/1 86/78/1
f 31/26/22 30/17/22 87/75/22 88/86/22
f 32/41/21 33/38/21 90/98/21 89/100/21
f 38/45/21 9/47/21 66/105/21 95/103/21
f 33/38/21 50/37/21 107/95/21 90/98/21
f 34/50/3 3/52/3 60/109/3 91/108/3
f 35/2/13 2/44/13 59/102/13 92/62/13
f 37/39/22 36/42/22 93/99/22 94/97/22
f 36/42/22 48/1/22 105/59/22 93/99/22
f 40/46/21 38/45/21 95/103/21 97/104/21
f 41/8/22 12/7/22 69/65/22 98/64/22
f 42/33/11 11/36/11 68/92/11 99/91/11
f 43/6/1 10/48/1 67/106/1 100/66/1
f 46/43/21 32/41/21 89/100/21 103/101/21
f 47/4/22 4/3/22 61/61/22 104/60/22
f 48/1/3 47/4/3 104/60/3 105/59/3
f 50/37/21 1/49/21 58/107/21 107/95/21
f 51/40/22 37/39/22 94/97/22 108/96/22
f 49/51/13 51/40/13 108/96/13 106/110/13
f 52/56/13 54/55/13 111/114/13 109/113/13
f 55/54/13 53/53/13 110/112/13 112/111/13
f 45/5/23 55/54/23 112/111/23 102/63/23
f 53/53/22 41/8/22 98/64/22 110/112/22
f 39/35/22 52/56/22 109/113/22 96/93/22
f 54/55/24 44/34/24 101/94/24 111/114/24
f 56/58/13 57/57/13 114/116/13 113/115/13
f 44/34/25 56/58/25 113/115/25 101/94/25
f 57/57/26 45/5/26 102/63/26 114/116/26
