# Blender v2.92.0 OBJ File: 'PasilloFinal.blend'
# www.blender.org
mtllib Suelo.mtl
o Suelo_Plane
v -8.000000 0.000000 1.620000
v 8.000000 0.000000 1.620000
v -8.000000 0.000000 -1.620000
v 8.000000 0.000000 -1.620000
v -0.658858 0.000000 1.620000
v -0.658858 0.000000 -1.620000
v 0.635208 0.000000 1.620000
v 0.635207 0.000000 -1.620000
v -0.658858 0.000000 2.120000
v 0.635208 0.000000 2.120000
v -8.000000 -0.100000 1.620000
v 8.000000 -0.100000 1.620000
v -8.000000 -0.100000 -1.620000
v 8.000000 -0.100000 -1.620000
v -0.658858 -0.100000 1.620000
v -0.658858 -0.100000 -1.620000
v 0.635208 -0.100000 1.620000
v 0.635207 -0.100000 -1.620000
v -0.658858 -0.100000 2.120000
v 0.635208 -0.100000 2.120000
vt 0.522764 0.000000
vt 1.000000 0.000000
vt 1.000000 1.000000
vt 0.522764 1.000000
vt 0.000000 0.000000
vt 0.458710 0.000000
vt 0.458710 1.000000
vt 0.000000 1.000000
vt 0.458710 0.000000
vt 0.522764 0.000000
vt 0.522764 0.000000
vt 0.522764 1.000000
vt 1.000000 1.000000
vt 1.000000 0.000000
vt 0.000000 0.000000
vt 0.000000 1.000000
vt 0.458710 1.000000
vt 0.458710 0.000000
vt 0.522764 0.000000
vt 0.458710 0.000000
vn 0.0000 1.0000 0.0000
vn 0.0000 -1.0000 0.0000
vn -1.0000 0.0000 0.0000
vn 0.0000 0.0000 1.0000
vn 1.0000 0.0000 0.0000
vn 0.0000 0.0000 -1.0000
usemtl None
s off
f 7/1/1 2/2/1 4/3/1 8/4/1
f 1/5/1 5/6/1 6/7/1 3/8/1
f 5/6/1 7/1/1 8/4/1 6/7/1
f 7/1/1 5/6/1 9/9/1 10/10/1
f 17/11/2 18/12/2 14/13/2 12/14/2
f 11/15/2 13/16/2 16/17/2 15/18/2
f 15/18/2 16/17/2 18/12/2 17/11/2
f 17/11/2 20/19/2 19/20/2 15/18/2
f 1/5/3 3/8/3 13/16/3 11/15/3
f 2/2/4 7/1/4 17/11/4 12/14/4
f 4/3/5 2/2/5 12/14/5 14/13/5
f 3/8/6 6/7/6 16/17/6 13/16/6
f 5/6/4 1/5/4 11/15/4 15/18/4
f 6/7/6 8/4/6 18/12/6 16/17/6
f 8/4/6 4/3/6 14/13/6 18/12/6
f 10/10/4 9/9/4 19/20/4 20/19/4
f 7/1/5 10/10/5 20/19/5 17/11/5
f 9/9/3 5/6/3 15/18/3 19/20/3
